STARTFONT 2.1
COMMENT This font was automatically resized by bdfresize-1.5
COMMENT   mag_x = 2/1, mag_y = 2/1, blackness = 4
FONT -ypn-envypn-Medium-R-Normal--26-260-75-75-C-180-ISO8859-1
SIZE 26 75 75
FONTBOUNDINGBOX 14 26 0 -4
STARTPROPERTIES 21
FOUNDRY "ypn"
FAMILY_NAME "envypn"
WEIGHT_NAME "Medium"
SLANT "R"
SETWIDTH_NAME "Normal"
SPACING "C"
CHARSET_REGISTRY "ISO8859"
CHARSET_ENCODING "1"
COPYRIGHT "Designed by Ypnose - http://ywstd.fr - Special thanks to mirabilos"
AVERAGE_WIDTH 180
PIXEL_SIZE 26
POINT_SIZE 260
RESOLUTION_X 75
RESOLUTION_Y 75
WEIGHT 10
X_HEIGHT 11
QUAD_WIDTH 7
_GBDFED_INFO "Edited with gbdfed 1.6."
DEFAULT_CHAR 0
FONT_DESCENT 4
FONT_ASCENT 22
ENDPROPERTIES
CHARS 203
STARTCHAR space
ENCODING 32
SWIDTH 1032 0
DWIDTH 14 0
BBX 14 26 0 -4
BITMAP
0000
0000
0000
0000
0000
0000
0000
0000
0000
0000
0000
0000
0000
0000
0000
0000
0000
0000
0000
0000
0000
0000
0000
0000
0000
0000
ENDCHAR
STARTCHAR exclamation
ENCODING 33
SWIDTH 1032 0
DWIDTH 14 0
BBX 14 26 0 -4
BITMAP
0000
0000
0000
0000
0000
0000
0300
0300
0300
0300
0300
0300
0300
0300
0300
0300
0000
0000
0300
0300
0300
0300
0000
0000
0000
0000
ENDCHAR
STARTCHAR dblquote
ENCODING 34
SWIDTH 1032 0
DWIDTH 14 0
BBX 14 26 0 -4
BITMAP
0000
0000
0000
0000
0000
0000
30C0
30C0
30C0
30C0
30C0
30C0
0000
0000
0000
0000
0000
0000
0000
0000
0000
0000
0000
0000
0000
0000
ENDCHAR
STARTCHAR nmbrsign
ENCODING 35
SWIDTH 1032 0
DWIDTH 14 0
BBX 14 26 0 -4
BITMAP
0000
0000
0000
0000
0000
0000
0000
0000
0CC0
0CC0
0CC0
0CC0
3FF0
3FF0
0CC0
0CC0
3FF0
3FF0
0CC0
0CC0
0CC0
0CC0
0000
0000
0000
0000
ENDCHAR
STARTCHAR dollar
ENCODING 36
SWIDTH 1032 0
DWIDTH 14 0
BBX 14 26 0 -4
BITMAP
0000
0000
0000
0000
0000
0000
0300
0300
0FF0
0FF0
3300
3300
3300
3300
0FC0
0FC0
0330
0330
0330
0330
3FC0
3FC0
0300
0300
0000
0000
ENDCHAR
STARTCHAR percent
ENCODING 37
SWIDTH 1032 0
DWIDTH 14 0
BBX 14 26 0 -4
BITMAP
0000
0000
0000
0000
0000
0000
0000
0000
3C30
3C30
3C30
3C30
00C0
00C0
0300
0300
0C00
0C00
30F0
30F0
30F0
30F0
0000
0000
0000
0000
ENDCHAR
STARTCHAR ampersand
ENCODING 38
SWIDTH 1032 0
DWIDTH 14 0
BBX 14 26 0 -4
BITMAP
0000
0000
0000
0000
0000
0000
0F00
0F00
30C0
30C0
30C0
30C0
0C00
0C00
0330
0330
30C0
30C0
30C0
30C0
0F30
0F30
0000
0000
0000
0000
ENDCHAR
STARTCHAR sglquote
ENCODING 39
SWIDTH 1032 0
DWIDTH 14 0
BBX 14 26 0 -4
BITMAP
0000
0000
0000
0000
0000
0000
0300
0300
0300
0300
0300
0300
0000
0000
0000
0000
0000
0000
0000
0000
0000
0000
0000
0000
0000
0000
ENDCHAR
STARTCHAR leftparent
ENCODING 40
SWIDTH 1032 0
DWIDTH 14 0
BBX 14 26 0 -4
BITMAP
0000
0000
0000
0000
00C0
00C0
0300
0300
0C00
0C00
0C00
0C00
0C00
0C00
0C00
0C00
0C00
0C00
0C00
0C00
0300
0300
00C0
00C0
0000
0000
ENDCHAR
STARTCHAR rightparent
ENCODING 41
SWIDTH 1032 0
DWIDTH 14 0
BBX 14 26 0 -4
BITMAP
0000
0000
0000
0000
0C00
0C00
0300
0300
00C0
00C0
00C0
00C0
00C0
00C0
00C0
00C0
00C0
00C0
00C0
00C0
0300
0300
0C00
0C00
0000
0000
ENDCHAR
STARTCHAR asterisk
ENCODING 42
SWIDTH 1032 0
DWIDTH 14 0
BBX 14 26 0 -4
BITMAP
0000
0000
0000
0000
0000
0000
0000
0000
0300
0300
3330
3330
0FC0
0FC0
0FC0
0FC0
3330
3330
0300
0300
0000
0000
0000
0000
0000
0000
ENDCHAR
STARTCHAR plus
ENCODING 43
SWIDTH 1032 0
DWIDTH 14 0
BBX 14 26 0 -4
BITMAP
0000
0000
0000
0000
0000
0000
0000
0000
0300
0300
0300
0300
3FF0
3FF0
0300
0300
0300
0300
0000
0000
0000
0000
0000
0000
0000
0000
ENDCHAR
STARTCHAR comma
ENCODING 44
SWIDTH 1032 0
DWIDTH 14 0
BBX 14 26 0 -4
BITMAP
0000
0000
0000
0000
0000
0000
0000
0000
0000
0000
0000
0000
0000
0000
0000
0000
0000
0000
0000
0000
03C0
03C0
0F00
0F00
0C00
0C00
ENDCHAR
STARTCHAR dash
ENCODING 45
SWIDTH 1032 0
DWIDTH 14 0
BBX 14 26 0 -4
BITMAP
0000
0000
0000
0000
0000
0000
0000
0000
0000
0000
0000
0000
0000
0000
3FF0
3FF0
0000
0000
0000
0000
0000
0000
0000
0000
0000
0000
ENDCHAR
STARTCHAR dot
ENCODING 46
SWIDTH 1032 0
DWIDTH 14 0
BBX 14 26 0 -4
BITMAP
0000
0000
0000
0000
0000
0000
0000
0000
0000
0000
0000
0000
0000
0000
0000
0000
0000
0000
03C0
03C0
03C0
03C0
0000
0000
0000
0000
ENDCHAR
STARTCHAR slashforw
ENCODING 47
SWIDTH 1032 0
DWIDTH 14 0
BBX 14 26 0 -4
BITMAP
0000
0000
0000
0000
0000
0000
00C0
00C0
00C0
00C0
0300
0300
0300
0300
0C00
0C00
0C00
0C00
3000
3000
3000
3000
0000
0000
0000
0000
ENDCHAR
STARTCHAR zero
ENCODING 48
SWIDTH 1032 0
DWIDTH 14 0
BBX 14 26 0 -4
BITMAP
0000
0000
0000
0000
0000
0000
0FC0
0FC0
3030
3030
30F0
30F0
3330
3330
3C30
3C30
3030
3030
3030
3030
0FC0
0FC0
0000
0000
0000
0000
ENDCHAR
STARTCHAR onehehe
ENCODING 49
SWIDTH 1032 0
DWIDTH 14 0
BBX 14 26 0 -4
BITMAP
0000
0000
0000
0000
0000
0000
0300
0300
0F00
0F00
3300
3300
0300
0300
0300
0300
0300
0300
0300
0300
3FF0
3FF0
0000
0000
0000
0000
ENDCHAR
STARTCHAR two
ENCODING 50
SWIDTH 1032 0
DWIDTH 14 0
BBX 14 26 0 -4
BITMAP
0000
0000
0000
0000
0000
0000
0FC0
0FC0
3030
3030
3030
3030
00C0
00C0
0300
0300
0C00
0C00
3000
3000
3FF0
3FF0
0000
0000
0000
0000
ENDCHAR
STARTCHAR three
ENCODING 51
SWIDTH 1032 0
DWIDTH 14 0
BBX 14 26 0 -4
BITMAP
0000
0000
0000
0000
0000
0000
3FC0
3FC0
0030
0030
0030
0030
3FC0
3FC0
0030
0030
0030
0030
0030
0030
3FC0
3FC0
0000
0000
0000
0000
ENDCHAR
STARTCHAR four
ENCODING 52
SWIDTH 1032 0
DWIDTH 14 0
BBX 14 26 0 -4
BITMAP
0000
0000
0000
0000
0000
0000
3030
3030
3030
3030
3030
3030
3030
3030
0FF0
0FF0
0030
0030
0030
0030
0030
0030
0000
0000
0000
0000
ENDCHAR
STARTCHAR five
ENCODING 53
SWIDTH 1032 0
DWIDTH 14 0
BBX 14 26 0 -4
BITMAP
0000
0000
0000
0000
0000
0000
3FF0
3FF0
3000
3000
3000
3000
3FC0
3FC0
0030
0030
0030
0030
0030
0030
3FC0
3FC0
0000
0000
0000
0000
ENDCHAR
STARTCHAR six
ENCODING 54
SWIDTH 1032 0
DWIDTH 14 0
BBX 14 26 0 -4
BITMAP
0000
0000
0000
0000
0000
0000
0FC0
0FC0
3000
3000
3000
3000
33C0
33C0
3030
3030
3030
3030
3030
3030
0FC0
0FC0
0000
0000
0000
0000
ENDCHAR
STARTCHAR seven
ENCODING 55
SWIDTH 1032 0
DWIDTH 14 0
BBX 14 26 0 -4
BITMAP
0000
0000
0000
0000
0000
0000
3FF0
3FF0
0030
0030
0030
0030
00C0
00C0
0300
0300
0300
0300
0300
0300
0300
0300
0000
0000
0000
0000
ENDCHAR
STARTCHAR eight
ENCODING 56
SWIDTH 1032 0
DWIDTH 14 0
BBX 14 26 0 -4
BITMAP
0000
0000
0000
0000
0000
0000
0FC0
0FC0
3030
3030
3030
3030
0FC0
0FC0
3030
3030
3030
3030
3030
3030
0FC0
0FC0
0000
0000
0000
0000
ENDCHAR
STARTCHAR nine
ENCODING 57
SWIDTH 1032 0
DWIDTH 14 0
BBX 14 26 0 -4
BITMAP
0000
0000
0000
0000
0000
0000
0FC0
0FC0
3030
3030
3030
3030
3030
3030
0FF0
0FF0
0030
0030
00C0
00C0
0F00
0F00
0000
0000
0000
0000
ENDCHAR
STARTCHAR colon
ENCODING 58
SWIDTH 1032 0
DWIDTH 14 0
BBX 14 26 0 -4
BITMAP
0000
0000
0000
0000
0000
0000
0000
0000
0000
0000
03C0
03C0
03C0
03C0
0000
0000
0000
0000
03C0
03C0
03C0
03C0
0000
0000
0000
0000
ENDCHAR
STARTCHAR semicolon
ENCODING 59
SWIDTH 1032 0
DWIDTH 14 0
BBX 14 26 0 -4
BITMAP
0000
0000
0000
0000
0000
0000
0000
0000
0000
0000
03C0
03C0
03C0
03C0
0000
0000
0000
0000
03C0
03C0
0F00
0F00
0C00
0C00
0000
0000
ENDCHAR
STARTCHAR lessthan
ENCODING 60
SWIDTH 1032 0
DWIDTH 14 0
BBX 14 26 0 -4
BITMAP
0000
0000
0000
0000
0000
0000
0000
0000
00C0
00C0
0300
0300
0C00
0C00
3000
3000
0C00
0C00
0300
0300
00C0
00C0
0000
0000
0000
0000
ENDCHAR
STARTCHAR equalsign
ENCODING 61
SWIDTH 1032 0
DWIDTH 14 0
BBX 14 26 0 -4
BITMAP
0000
0000
0000
0000
0000
0000
0000
0000
0000
0000
3FF0
3FF0
0000
0000
0000
0000
3FF0
3FF0
0000
0000
0000
0000
0000
0000
0000
0000
ENDCHAR
STARTCHAR greathan
ENCODING 62
SWIDTH 1032 0
DWIDTH 14 0
BBX 14 26 0 -4
BITMAP
0000
0000
0000
0000
0000
0000
0000
0000
0C00
0C00
0300
0300
00C0
00C0
0030
0030
00C0
00C0
0300
0300
0C00
0C00
0000
0000
0000
0000
ENDCHAR
STARTCHAR question
ENCODING 63
SWIDTH 1032 0
DWIDTH 14 0
BBX 14 26 0 -4
BITMAP
0000
0000
0000
0000
0000
0000
0FC0
0FC0
3030
3030
3030
3030
00C0
00C0
0300
0300
0300
0300
0000
0000
0300
0300
0000
0000
0000
0000
ENDCHAR
STARTCHAR at
ENCODING 64
SWIDTH 1032 0
DWIDTH 14 0
BBX 14 26 0 -4
BITMAP
0000
0000
0000
0000
0000
0000
0000
0000
0FC0
0FC0
3030
3030
33F0
33F0
3330
3330
3330
3330
33F0
33F0
3000
3000
0FF0
0FF0
0000
0000
ENDCHAR
STARTCHAR A
ENCODING 65
SWIDTH 1032 0
DWIDTH 14 0
BBX 14 26 0 -4
BITMAP
0000
0000
0000
0000
0000
0000
0FC0
0FC0
3030
3030
3030
3030
3030
3030
3FF0
3FF0
3030
3030
3030
3030
3030
3030
0000
0000
0000
0000
ENDCHAR
STARTCHAR B
ENCODING 66
SWIDTH 1032 0
DWIDTH 14 0
BBX 14 26 0 -4
BITMAP
0000
0000
0000
0000
0000
0000
3FC0
3FC0
3030
3030
3030
3030
3FC0
3FC0
3030
3030
3030
3030
3030
3030
3FC0
3FC0
0000
0000
0000
0000
ENDCHAR
STARTCHAR C
ENCODING 67
SWIDTH 1032 0
DWIDTH 14 0
BBX 14 26 0 -4
BITMAP
0000
0000
0000
0000
0000
0000
0FC0
0FC0
3030
3030
3000
3000
3000
3000
3000
3000
3000
3000
3030
3030
0FC0
0FC0
0000
0000
0000
0000
ENDCHAR
STARTCHAR D
ENCODING 68
SWIDTH 1032 0
DWIDTH 14 0
BBX 14 26 0 -4
BITMAP
0000
0000
0000
0000
0000
0000
3FC0
3FC0
3030
3030
3030
3030
3030
3030
3030
3030
3030
3030
3030
3030
3FC0
3FC0
0000
0000
0000
0000
ENDCHAR
STARTCHAR E
ENCODING 69
SWIDTH 1032 0
DWIDTH 14 0
BBX 14 26 0 -4
BITMAP
0000
0000
0000
0000
0000
0000
3FF0
3FF0
3000
3000
3000
3000
3FC0
3FC0
3000
3000
3000
3000
3000
3000
3FF0
3FF0
0000
0000
0000
0000
ENDCHAR
STARTCHAR F
ENCODING 70
SWIDTH 1032 0
DWIDTH 14 0
BBX 14 26 0 -4
BITMAP
0000
0000
0000
0000
0000
0000
3FF0
3FF0
3000
3000
3000
3000
3FC0
3FC0
3000
3000
3000
3000
3000
3000
3000
3000
0000
0000
0000
0000
ENDCHAR
STARTCHAR G
ENCODING 71
SWIDTH 1032 0
DWIDTH 14 0
BBX 14 26 0 -4
BITMAP
0000
0000
0000
0000
0000
0000
0FC0
0FC0
3030
3030
3000
3000
3000
3000
30F0
30F0
3030
3030
30F0
30F0
0F30
0F30
0000
0000
0000
0000
ENDCHAR
STARTCHAR H
ENCODING 72
SWIDTH 1032 0
DWIDTH 14 0
BBX 14 26 0 -4
BITMAP
0000
0000
0000
0000
0000
0000
3030
3030
3030
3030
3030
3030
3FF0
3FF0
3030
3030
3030
3030
3030
3030
3030
3030
0000
0000
0000
0000
ENDCHAR
STARTCHAR I
ENCODING 73
SWIDTH 1032 0
DWIDTH 14 0
BBX 14 26 0 -4
BITMAP
0000
0000
0000
0000
0000
0000
3FF0
3FF0
0300
0300
0300
0300
0300
0300
0300
0300
0300
0300
0300
0300
3FF0
3FF0
0000
0000
0000
0000
ENDCHAR
STARTCHAR J
ENCODING 74
SWIDTH 1032 0
DWIDTH 14 0
BBX 14 26 0 -4
BITMAP
0000
0000
0000
0000
0000
0000
03F0
03F0
0C30
0C30
0030
0030
0030
0030
0030
0030
0030
0030
3030
3030
0FF0
0FF0
0000
0000
0000
0000
ENDCHAR
STARTCHAR K
ENCODING 75
SWIDTH 1032 0
DWIDTH 14 0
BBX 14 26 0 -4
BITMAP
0000
0000
0000
0000
0000
0000
3030
3030
30C0
30C0
3300
3300
3C00
3C00
3C00
3C00
3300
3300
30C0
30C0
3030
3030
0000
0000
0000
0000
ENDCHAR
STARTCHAR L
ENCODING 76
SWIDTH 1032 0
DWIDTH 14 0
BBX 14 26 0 -4
BITMAP
0000
0000
0000
0000
0000
0000
3000
3000
3000
3000
3000
3000
3000
3000
3000
3000
3000
3000
3000
3000
3FF0
3FF0
0000
0000
0000
0000
ENDCHAR
STARTCHAR M
ENCODING 77
SWIDTH 1032 0
DWIDTH 14 0
BBX 14 26 0 -4
BITMAP
0000
0000
0000
0000
0000
0000
3030
3030
3CF0
3CF0
3FF0
3FF0
3330
3330
3330
3330
3030
3030
3030
3030
3030
3030
0000
0000
0000
0000
ENDCHAR
STARTCHAR N
ENCODING 78
SWIDTH 1032 0
DWIDTH 14 0
BBX 14 26 0 -4
BITMAP
0000
0000
0000
0000
0000
0000
3030
3030
3C30
3C30
3330
3330
30F0
30F0
3030
3030
3030
3030
3030
3030
3030
3030
0000
0000
0000
0000
ENDCHAR
STARTCHAR O
ENCODING 79
SWIDTH 1032 0
DWIDTH 14 0
BBX 14 26 0 -4
BITMAP
0000
0000
0000
0000
0000
0000
0FC0
0FC0
3030
3030
3030
3030
3030
3030
3030
3030
3030
3030
3030
3030
0FC0
0FC0
0000
0000
0000
0000
ENDCHAR
STARTCHAR P
ENCODING 80
SWIDTH 1032 0
DWIDTH 14 0
BBX 14 26 0 -4
BITMAP
0000
0000
0000
0000
0000
0000
3FC0
3FC0
3030
3030
3030
3030
3030
3030
3FC0
3FC0
3000
3000
3000
3000
3000
3000
0000
0000
0000
0000
ENDCHAR
STARTCHAR Q
ENCODING 81
SWIDTH 1032 0
DWIDTH 14 0
BBX 14 26 0 -4
BITMAP
0000
0000
0000
0000
0000
0000
0FC0
0FC0
3030
3030
3030
3030
3030
3030
3030
3030
3330
3330
30F0
30F0
0FC0
0FC0
00C0
00C0
00C0
00C0
ENDCHAR
STARTCHAR R
ENCODING 82
SWIDTH 1032 0
DWIDTH 14 0
BBX 14 26 0 -4
BITMAP
0000
0000
0000
0000
0000
0000
3FC0
3FC0
3030
3030
3030
3030
3030
3030
3FC0
3FC0
3300
3300
30C0
30C0
3030
3030
0000
0000
0000
0000
ENDCHAR
STARTCHAR S
ENCODING 83
SWIDTH 1032 0
DWIDTH 14 0
BBX 14 26 0 -4
BITMAP
0000
0000
0000
0000
0000
0000
0FF0
0FF0
3000
3000
3000
3000
0FC0
0FC0
0030
0030
0030
0030
0030
0030
3FC0
3FC0
0000
0000
0000
0000
ENDCHAR
STARTCHAR T
ENCODING 84
SWIDTH 1032 0
DWIDTH 14 0
BBX 14 26 0 -4
BITMAP
0000
0000
0000
0000
0000
0000
3FF0
3FF0
0300
0300
0300
0300
0300
0300
0300
0300
0300
0300
0300
0300
0300
0300
0000
0000
0000
0000
ENDCHAR
STARTCHAR U
ENCODING 85
SWIDTH 1032 0
DWIDTH 14 0
BBX 14 26 0 -4
BITMAP
0000
0000
0000
0000
0000
0000
3030
3030
3030
3030
3030
3030
3030
3030
3030
3030
3030
3030
3030
3030
0FC0
0FC0
0000
0000
0000
0000
ENDCHAR
STARTCHAR V
ENCODING 86
SWIDTH 1032 0
DWIDTH 14 0
BBX 14 26 0 -4
BITMAP
0000
0000
0000
0000
0000
0000
3030
3030
3030
3030
3030
3030
3030
3030
3030
3030
3030
3030
0CC0
0CC0
0300
0300
0000
0000
0000
0000
ENDCHAR
STARTCHAR W
ENCODING 87
SWIDTH 1032 0
DWIDTH 14 0
BBX 14 26 0 -4
BITMAP
0000
0000
0000
0000
0000
0000
3030
3030
3030
3030
3030
3030
3330
3330
3330
3330
3FF0
3FF0
3CF0
3CF0
3030
3030
0000
0000
0000
0000
ENDCHAR
STARTCHAR X
ENCODING 88
SWIDTH 1032 0
DWIDTH 14 0
BBX 14 26 0 -4
BITMAP
0000
0000
0000
0000
0000
0000
3030
3030
3030
3030
0CC0
0CC0
0300
0300
0CC0
0CC0
3030
3030
3030
3030
3030
3030
0000
0000
0000
0000
ENDCHAR
STARTCHAR Y
ENCODING 89
SWIDTH 1032 0
DWIDTH 14 0
BBX 14 26 0 -4
BITMAP
0000
0000
0000
0000
0000
0000
3030
3030
3030
3030
3030
3030
0CC0
0CC0
0300
0300
0300
0300
0300
0300
0300
0300
0000
0000
0000
0000
ENDCHAR
STARTCHAR Z
ENCODING 90
SWIDTH 1032 0
DWIDTH 14 0
BBX 14 26 0 -4
BITMAP
0000
0000
0000
0000
0000
0000
3FF0
3FF0
0030
0030
00C0
00C0
0300
0300
0C00
0C00
3000
3000
3000
3000
3FF0
3FF0
0000
0000
0000
0000
ENDCHAR
STARTCHAR leftbrack
ENCODING 91
SWIDTH 1032 0
DWIDTH 14 0
BBX 14 26 0 -4
BITMAP
0000
0000
0000
0000
0FC0
0FC0
0C00
0C00
0C00
0C00
0C00
0C00
0C00
0C00
0C00
0C00
0C00
0C00
0C00
0C00
0C00
0C00
0FC0
0FC0
0000
0000
ENDCHAR
STARTCHAR backslash
ENCODING 92
SWIDTH 1032 0
DWIDTH 14 0
BBX 14 26 0 -4
BITMAP
0000
0000
0000
0000
0000
0000
0C00
0C00
0C00
0C00
0300
0300
0300
0300
00C0
00C0
00C0
00C0
0030
0030
0030
0030
0000
0000
0000
0000
ENDCHAR
STARTCHAR rightbrack
ENCODING 93
SWIDTH 1032 0
DWIDTH 14 0
BBX 14 26 0 -4
BITMAP
0000
0000
0000
0000
0FC0
0FC0
00C0
00C0
00C0
00C0
00C0
00C0
00C0
00C0
00C0
00C0
00C0
00C0
00C0
00C0
00C0
00C0
0FC0
0FC0
0000
0000
ENDCHAR
STARTCHAR cirumflex
ENCODING 94
SWIDTH 1032 0
DWIDTH 14 0
BBX 14 26 0 -4
BITMAP
0000
0000
0000
0000
0000
0000
0300
0300
0FC0
0FC0
3CF0
3CF0
3030
3030
0000
0000
0000
0000
0000
0000
0000
0000
0000
0000
0000
0000
ENDCHAR
STARTCHAR underscore
ENCODING 95
SWIDTH 1032 0
DWIDTH 14 0
BBX 14 26 0 -4
BITMAP
0000
0000
0000
0000
0000
0000
0000
0000
0000
0000
0000
0000
0000
0000
0000
0000
0000
0000
0000
0000
0000
0000
3FF0
3FF0
0000
0000
ENDCHAR
STARTCHAR grave
ENCODING 96
SWIDTH 1032 0
DWIDTH 14 0
BBX 14 26 0 -4
BITMAP
0000
0000
0000
0000
0000
0000
0000
0000
0300
0300
03C0
03C0
00C0
00C0
0000
0000
0000
0000
0000
0000
0000
0000
0000
0000
0000
0000
ENDCHAR
STARTCHAR a
ENCODING 97
SWIDTH 1032 0
DWIDTH 14 0
BBX 14 26 0 -4
BITMAP
0000
0000
0000
0000
0000
0000
0000
0000
0000
0000
0FC0
0FC0
0030
0030
0FF0
0FF0
3030
3030
3030
3030
0FF0
0FF0
0000
0000
0000
0000
ENDCHAR
STARTCHAR b
ENCODING 98
SWIDTH 1032 0
DWIDTH 14 0
BBX 14 26 0 -4
BITMAP
0000
0000
0000
0000
0000
0000
3000
3000
3000
3000
3FC0
3FC0
3030
3030
3030
3030
3030
3030
3030
3030
0FC0
0FC0
0000
0000
0000
0000
ENDCHAR
STARTCHAR c
ENCODING 99
SWIDTH 1032 0
DWIDTH 14 0
BBX 14 26 0 -4
BITMAP
0000
0000
0000
0000
0000
0000
0000
0000
0000
0000
0FC0
0FC0
3030
3030
3000
3000
3000
3000
3030
3030
0FC0
0FC0
0000
0000
0000
0000
ENDCHAR
STARTCHAR d
ENCODING 100
SWIDTH 1032 0
DWIDTH 14 0
BBX 14 26 0 -4
BITMAP
0000
0000
0000
0000
0000
0000
0030
0030
0030
0030
0FF0
0FF0
3030
3030
3030
3030
3030
3030
3030
3030
0FF0
0FF0
0000
0000
0000
0000
ENDCHAR
STARTCHAR e
ENCODING 101
SWIDTH 1032 0
DWIDTH 14 0
BBX 14 26 0 -4
BITMAP
0000
0000
0000
0000
0000
0000
0000
0000
0000
0000
0FC0
0FC0
3030
3030
3030
3030
3FC0
3FC0
3000
3000
0FF0
0FF0
0000
0000
0000
0000
ENDCHAR
STARTCHAR f
ENCODING 102
SWIDTH 1032 0
DWIDTH 14 0
BBX 14 26 0 -4
BITMAP
0000
0000
0000
0000
0000
0000
03F0
03F0
0C00
0C00
0C00
0C00
3FC0
3FC0
0C00
0C00
0C00
0C00
0C00
0C00
0C00
0C00
0000
0000
0000
0000
ENDCHAR
STARTCHAR g
ENCODING 103
SWIDTH 1032 0
DWIDTH 14 0
BBX 14 26 0 -4
BITMAP
0000
0000
0000
0000
0000
0000
0000
0000
0000
0000
0FF0
0FF0
3030
3030
3030
3030
3030
3030
3030
3030
0FF0
0FF0
0030
0030
3FC0
3FC0
ENDCHAR
STARTCHAR h
ENCODING 104
SWIDTH 1032 0
DWIDTH 14 0
BBX 14 26 0 -4
BITMAP
0000
0000
0000
0000
0000
0000
3000
3000
3000
3000
3FC0
3FC0
3030
3030
3030
3030
3030
3030
3030
3030
3030
3030
0000
0000
0000
0000
ENDCHAR
STARTCHAR i
ENCODING 105
SWIDTH 1032 0
DWIDTH 14 0
BBX 14 26 0 -4
BITMAP
0000
0000
0000
0000
0000
0000
0300
0300
0000
0000
3F00
3F00
0300
0300
0300
0300
0300
0300
0300
0300
03F0
03F0
0000
0000
0000
0000
ENDCHAR
STARTCHAR j
ENCODING 106
SWIDTH 1032 0
DWIDTH 14 0
BBX 14 26 0 -4
BITMAP
0000
0000
0000
0000
0000
0000
0030
0030
0000
0000
03F0
03F0
0030
0030
0030
0030
0030
0030
0030
0030
0030
0030
0030
0030
3FC0
3FC0
ENDCHAR
STARTCHAR k
ENCODING 107
SWIDTH 1032 0
DWIDTH 14 0
BBX 14 26 0 -4
BITMAP
0000
0000
0000
0000
0000
0000
3000
3000
3000
3000
30F0
30F0
3300
3300
3C00
3C00
3C00
3C00
3300
3300
30F0
30F0
0000
0000
0000
0000
ENDCHAR
STARTCHAR l
ENCODING 108
SWIDTH 1032 0
DWIDTH 14 0
BBX 14 26 0 -4
BITMAP
0000
0000
0000
0000
0000
0000
3F00
3F00
0300
0300
0300
0300
0300
0300
0300
0300
0300
0300
0300
0300
03F0
03F0
0000
0000
0000
0000
ENDCHAR
STARTCHAR m
ENCODING 109
SWIDTH 1032 0
DWIDTH 14 0
BBX 14 26 0 -4
BITMAP
0000
0000
0000
0000
0000
0000
0000
0000
0000
0000
0FC0
0FC0
3330
3330
3330
3330
3330
3330
3030
3030
3030
3030
0000
0000
0000
0000
ENDCHAR
STARTCHAR n
ENCODING 110
SWIDTH 1032 0
DWIDTH 14 0
BBX 14 26 0 -4
BITMAP
0000
0000
0000
0000
0000
0000
0000
0000
0000
0000
0FC0
0FC0
3030
3030
3030
3030
3030
3030
3030
3030
3030
3030
0000
0000
0000
0000
ENDCHAR
STARTCHAR o
ENCODING 111
SWIDTH 1032 0
DWIDTH 14 0
BBX 14 26 0 -4
BITMAP
0000
0000
0000
0000
0000
0000
0000
0000
0000
0000
0FC0
0FC0
3030
3030
3030
3030
3030
3030
3030
3030
0FC0
0FC0
0000
0000
0000
0000
ENDCHAR
STARTCHAR p
ENCODING 112
SWIDTH 1032 0
DWIDTH 14 0
BBX 14 26 0 -4
BITMAP
0000
0000
0000
0000
0000
0000
0000
0000
0000
0000
0FC0
0FC0
3030
3030
3030
3030
3030
3030
3030
3030
3FC0
3FC0
3000
3000
3000
3000
ENDCHAR
STARTCHAR q
ENCODING 113
SWIDTH 1032 0
DWIDTH 14 0
BBX 14 26 0 -4
BITMAP
0000
0000
0000
0000
0000
0000
0000
0000
0000
0000
0FC0
0FC0
3030
3030
3030
3030
3030
3030
3030
3030
0FF0
0FF0
0030
0030
0030
0030
ENDCHAR
STARTCHAR r
ENCODING 114
SWIDTH 1032 0
DWIDTH 14 0
BBX 14 26 0 -4
BITMAP
0000
0000
0000
0000
0000
0000
0000
0000
0000
0000
33F0
33F0
3C00
3C00
3000
3000
3000
3000
3000
3000
3000
3000
0000
0000
0000
0000
ENDCHAR
STARTCHAR s
ENCODING 115
SWIDTH 1032 0
DWIDTH 14 0
BBX 14 26 0 -4
BITMAP
0000
0000
0000
0000
0000
0000
0000
0000
0000
0000
0FF0
0FF0
3000
3000
0FC0
0FC0
0030
0030
0030
0030
3FC0
3FC0
0000
0000
0000
0000
ENDCHAR
STARTCHAR t
ENCODING 116
SWIDTH 1032 0
DWIDTH 14 0
BBX 14 26 0 -4
BITMAP
0000
0000
0000
0000
0000
0000
0C00
0C00
0C00
0C00
3FC0
3FC0
0C00
0C00
0C00
0C00
0C00
0C00
0C00
0C00
03F0
03F0
0000
0000
0000
0000
ENDCHAR
STARTCHAR u
ENCODING 117
SWIDTH 1032 0
DWIDTH 14 0
BBX 14 26 0 -4
BITMAP
0000
0000
0000
0000
0000
0000
0000
0000
0000
0000
3030
3030
3030
3030
3030
3030
3030
3030
3030
3030
0FF0
0FF0
0000
0000
0000
0000
ENDCHAR
STARTCHAR v
ENCODING 118
SWIDTH 1032 0
DWIDTH 14 0
BBX 14 26 0 -4
BITMAP
0000
0000
0000
0000
0000
0000
0000
0000
0000
0000
3030
3030
3030
3030
3030
3030
3030
3030
0CC0
0CC0
0300
0300
0000
0000
0000
0000
ENDCHAR
STARTCHAR w
ENCODING 119
SWIDTH 1032 0
DWIDTH 14 0
BBX 14 26 0 -4
BITMAP
0000
0000
0000
0000
0000
0000
0000
0000
0000
0000
3030
3030
3030
3030
3330
3330
3330
3330
3330
3330
0FC0
0FC0
0000
0000
0000
0000
ENDCHAR
STARTCHAR x
ENCODING 120
SWIDTH 1032 0
DWIDTH 14 0
BBX 14 26 0 -4
BITMAP
0000
0000
0000
0000
0000
0000
0000
0000
0000
0000
3030
3030
0CC0
0CC0
0300
0300
0CC0
0CC0
3030
3030
3030
3030
0000
0000
0000
0000
ENDCHAR
STARTCHAR y
ENCODING 121
SWIDTH 1032 0
DWIDTH 14 0
BBX 14 26 0 -4
BITMAP
0000
0000
0000
0000
0000
0000
0000
0000
0000
0000
3030
3030
3030
3030
3030
3030
3030
3030
3030
3030
0FF0
0FF0
0030
0030
3FC0
3FC0
ENDCHAR
STARTCHAR z
ENCODING 122
SWIDTH 1032 0
DWIDTH 14 0
BBX 14 26 0 -4
BITMAP
0000
0000
0000
0000
0000
0000
0000
0000
0000
0000
3FF0
3FF0
0030
0030
03C0
03C0
0C00
0C00
3000
3000
3FF0
3FF0
0000
0000
0000
0000
ENDCHAR
STARTCHAR leftbrace
ENCODING 123
SWIDTH 1032 0
DWIDTH 14 0
BBX 14 26 0 -4
BITMAP
0000
0000
0000
0000
00F0
00F0
0300
0300
0300
0300
0300
0300
3C00
3C00
0300
0300
0300
0300
0300
0300
0300
0300
00F0
00F0
0000
0000
ENDCHAR
STARTCHAR vertbar
ENCODING 124
SWIDTH 1032 0
DWIDTH 14 0
BBX 14 26 0 -4
BITMAP
0000
0000
0000
0000
0300
0300
0300
0300
0300
0300
0300
0300
0300
0300
0300
0300
0300
0300
0300
0300
0300
0300
0300
0300
0000
0000
ENDCHAR
STARTCHAR rightbrace
ENCODING 125
SWIDTH 1032 0
DWIDTH 14 0
BBX 14 26 0 -4
BITMAP
0000
0000
0000
0000
3C00
3C00
0300
0300
0300
0300
0300
0300
00F0
00F0
0300
0300
0300
0300
0300
0300
0300
0300
3C00
3C00
0000
0000
ENDCHAR
STARTCHAR tilde
ENCODING 126
SWIDTH 1032 0
DWIDTH 14 0
BBX 14 26 0 -4
BITMAP
0000
0000
0000
0000
0000
0000
0000
0000
0C30
0C30
3330
3330
30C0
30C0
0000
0000
0000
0000
0000
0000
0000
0000
0000
0000
0000
0000
ENDCHAR
STARTCHAR capitalOE
ENCODING 140
SWIDTH 1032 0
DWIDTH 14 0
BBX 14 26 0 -4
BITMAP
0000
0000
0000
0000
0000
0000
0FFC
0FFC
30C0
30C0
30C0
30C0
30C0
30C0
30FC
30FC
30C0
30C0
30C0
30C0
0FFC
0FFC
0000
0000
0000
0000
ENDCHAR
STARTCHAR smalloe
ENCODING 156
SWIDTH 1032 0
DWIDTH 14 0
BBX 14 26 0 -4
BITMAP
0000
0000
0000
0000
0000
0000
0000
0000
0000
0000
0FFC
0FFC
30C0
30C0
30FC
30FC
30C0
30C0
30C0
30C0
0FFC
0FFC
0000
0000
0000
0000
ENDCHAR
STARTCHAR nonbreak
ENCODING 160
SWIDTH 1032 0
DWIDTH 14 0
BBX 14 26 0 -4
BITMAP
0000
0000
0000
0000
0000
0000
0000
0000
0000
0000
0000
0000
0000
0000
0000
0000
0000
0000
0000
0000
0000
0000
0000
0000
0000
0000
ENDCHAR
STARTCHAR invexcla
ENCODING 161
SWIDTH 1032 0
DWIDTH 14 0
BBX 14 26 0 -4
BITMAP
0000
0000
0000
0000
0000
0000
0300
0300
0000
0000
0300
0300
0300
0300
0300
0300
0300
0300
0300
0300
0300
0300
0000
0000
0000
0000
ENDCHAR
STARTCHAR centsign
ENCODING 162
SWIDTH 1032 0
DWIDTH 14 0
BBX 14 26 0 -4
BITMAP
0000
0000
0000
0000
0000
0000
0000
0000
0300
0300
0FC0
0FC0
3330
3330
3300
3300
3300
3300
3330
3330
0FC0
0FC0
0300
0300
0000
0000
ENDCHAR
STARTCHAR pound
ENCODING 163
SWIDTH 1032 0
DWIDTH 14 0
BBX 14 26 0 -4
BITMAP
0000
0000
0000
0000
00F0
00F0
0300
0300
0300
0300
0300
0300
0FF0
0FF0
0300
0300
0300
0300
0FC0
0FC0
3030
3030
0000
0000
0000
0000
ENDCHAR
STARTCHAR currency
ENCODING 164
SWIDTH 1032 0
DWIDTH 14 0
BBX 14 26 0 -4
BITMAP
0000
0000
0000
0000
0000
0000
0000
0000
3030
3030
0FC0
0FC0
3030
3030
3030
3030
3030
3030
0FC0
0FC0
3030
3030
0000
0000
0000
0000
ENDCHAR
STARTCHAR yensign
ENCODING 165
SWIDTH 1032 0
DWIDTH 14 0
BBX 14 26 0 -4
BITMAP
0000
0000
0000
0000
0000
0000
3030
3030
3030
3030
0CC0
0CC0
0300
0300
3FF0
3FF0
0300
0300
3FF0
3FF0
0300
0300
0000
0000
0000
0000
ENDCHAR
STARTCHAR brokenbar
ENCODING 166
SWIDTH 1032 0
DWIDTH 14 0
BBX 14 26 0 -4
BITMAP
0000
0000
0000
0000
03C0
03C0
03C0
03C0
03C0
03C0
0000
0000
0000
0000
03C0
03C0
03C0
03C0
03C0
03C0
03C0
03C0
0000
0000
0000
0000
ENDCHAR
STARTCHAR section
ENCODING 167
SWIDTH 1032 0
DWIDTH 14 0
BBX 14 26 0 -4
BITMAP
0000
0000
0000
0000
0000
0000
0FF0
0FF0
3000
3000
3300
3300
0CC0
0CC0
0CC0
0CC0
0330
0330
0030
0030
3FC0
3FC0
0000
0000
0000
0000
ENDCHAR
STARTCHAR umlaut
ENCODING 168
SWIDTH 1032 0
DWIDTH 14 0
BBX 14 26 0 -4
BITMAP
0000
0000
0000
0000
30C0
30C0
30C0
30C0
0000
0000
0000
0000
0000
0000
0000
0000
0000
0000
0000
0000
0000
0000
0000
0000
0000
0000
ENDCHAR
STARTCHAR copyright
ENCODING 169
SWIDTH 1032 0
DWIDTH 14 0
BBX 14 26 0 -4
BITMAP
0000
0000
0000
0000
0000
0000
0FC0
0FC0
3030
3030
3FF0
3FF0
3C30
3C30
3C30
3C30
3FF0
3FF0
3030
3030
0FC0
0FC0
0000
0000
0000
0000
ENDCHAR
STARTCHAR femindic
ENCODING 170
SWIDTH 1032 0
DWIDTH 14 0
BBX 14 26 0 -4
BITMAP
0000
0000
0000
0000
03F0
03F0
0030
0030
03F0
03F0
0330
0330
03F0
03F0
0000
0000
0000
0000
0000
0000
0000
0000
0000
0000
0000
0000
ENDCHAR
STARTCHAR leftdlquote
ENCODING 171
SWIDTH 1032 0
DWIDTH 14 0
BBX 14 26 0 -4
BITMAP
0000
0000
0000
0000
0000
0000
0000
0000
0330
0330
0CC0
0CC0
3300
3300
CC00
CC00
3300
3300
0CC0
0CC0
0330
0330
0000
0000
0000
0000
ENDCHAR
STARTCHAR nological
ENCODING 172
SWIDTH 1032 0
DWIDTH 14 0
BBX 14 26 0 -4
BITMAP
0000
0000
0000
0000
0000
0000
0000
0000
0000
0000
0000
0000
3FF0
3FF0
0030
0030
0030
0030
0000
0000
0000
0000
0000
0000
0000
0000
ENDCHAR
STARTCHAR hyphen
ENCODING 173
SWIDTH 1032 0
DWIDTH 14 0
BBX 14 26 0 -4
BITMAP
0000
0000
0000
0000
0000
0000
0000
0000
0000
0000
0000
0000
0FC0
0FC0
0000
0000
0000
0000
0000
0000
0000
0000
0000
0000
0000
0000
ENDCHAR
STARTCHAR trademark
ENCODING 174
SWIDTH 1032 0
DWIDTH 14 0
BBX 14 26 0 -4
BITMAP
0000
0000
0000
0000
0000
0000
0000
0000
0FC0
0FC0
3030
3030
3FF0
3FF0
3C30
3C30
3C30
3C30
3030
3030
0FC0
0FC0
0000
0000
0000
0000
ENDCHAR
STARTCHAR macron
ENCODING 175
SWIDTH 1032 0
DWIDTH 14 0
BBX 14 26 0 -4
BITMAP
0000
0000
0000
0000
0000
0000
3FF0
3FF0
0000
0000
0000
0000
0000
0000
0000
0000
0000
0000
0000
0000
0000
0000
0000
0000
0000
0000
ENDCHAR
STARTCHAR degree
ENCODING 176
SWIDTH 1032 0
DWIDTH 14 0
BBX 14 26 0 -4
BITMAP
0000
0000
0000
0000
03F0
03F0
0330
0330
0330
0330
03F0
03F0
0000
0000
0000
0000
0000
0000
0000
0000
0000
0000
0000
0000
0000
0000
ENDCHAR
STARTCHAR plusmin
ENCODING 177
SWIDTH 1032 0
DWIDTH 14 0
BBX 14 26 0 -4
BITMAP
0000
0000
0000
0000
0000
0000
0000
0000
0300
0300
0300
0300
3FF0
3FF0
0300
0300
0300
0300
3FF0
3FF0
0000
0000
0000
0000
0000
0000
ENDCHAR
STARTCHAR supertwo
ENCODING 178
SWIDTH 1032 0
DWIDTH 14 0
BBX 14 26 0 -4
BITMAP
0000
0000
03C0
03C0
0C30
0C30
0C30
0C30
00C0
00C0
0300
0300
0FF0
0FF0
0000
0000
0000
0000
0000
0000
0000
0000
0000
0000
0000
0000
ENDCHAR
STARTCHAR superthree
ENCODING 179
SWIDTH 1032 0
DWIDTH 14 0
BBX 14 26 0 -4
BITMAP
0000
0000
03C0
03C0
0030
0030
03C0
03C0
0030
0030
0030
0030
03C0
03C0
0000
0000
0000
0000
0000
0000
0000
0000
0000
0000
0000
0000
ENDCHAR
STARTCHAR acuteacc
ENCODING 180
SWIDTH 1032 0
DWIDTH 14 0
BBX 14 26 0 -4
BITMAP
0000
0000
00C0
00C0
03C0
03C0
0300
0300
0000
0000
0000
0000
0000
0000
0000
0000
0000
0000
0000
0000
0000
0000
0000
0000
0000
0000
ENDCHAR
STARTCHAR micro
ENCODING 181
SWIDTH 1032 0
DWIDTH 14 0
BBX 14 26 0 -4
BITMAP
0000
0000
0000
0000
0000
0000
0000
0000
0000
0000
3030
3030
3030
3030
3030
3030
3030
3030
3FF0
3FF0
3000
3000
3000
3000
3000
3000
ENDCHAR
STARTCHAR paragraph
ENCODING 182
SWIDTH 1032 0
DWIDTH 14 0
BBX 14 26 0 -4
BITMAP
0000
0000
0000
0000
0000
0000
0000
0000
0000
0000
3F30
3F30
3330
3330
3330
3330
3F30
3F30
0330
0330
0330
0330
0000
0000
0000
0000
ENDCHAR
STARTCHAR middot
ENCODING 183
SWIDTH 1032 0
DWIDTH 14 0
BBX 14 26 0 -4
BITMAP
0000
0000
0000
0000
0000
0000
0000
0000
0000
0000
0F00
0F00
0F00
0F00
0000
0000
0000
0000
0000
0000
0000
0000
0000
0000
0000
0000
ENDCHAR
STARTCHAR cedilla
ENCODING 184
SWIDTH 1032 0
DWIDTH 14 0
BBX 14 26 0 -4
BITMAP
0000
0000
0000
0000
0000
0000
0000
0000
0000
0000
0000
0000
0000
0000
0000
0000
0000
0000
00C0
00C0
03C0
03C0
0300
0300
0000
0000
ENDCHAR
STARTCHAR superone
ENCODING 185
SWIDTH 1032 0
DWIDTH 14 0
BBX 14 26 0 -4
BITMAP
0000
0000
00C0
00C0
03C0
03C0
0CC0
0CC0
00C0
00C0
00C0
00C0
03F0
03F0
0000
0000
0000
0000
0000
0000
0000
0000
0000
0000
0000
0000
ENDCHAR
STARTCHAR mascuind
ENCODING 186
SWIDTH 1032 0
DWIDTH 14 0
BBX 14 26 0 -4
BITMAP
0000
0000
0000
0000
03F0
03F0
0330
0330
0330
0330
03F0
03F0
0000
0000
0000
0000
0000
0000
0000
0000
0000
0000
0000
0000
0000
0000
ENDCHAR
STARTCHAR rigdlquote
ENCODING 187
SWIDTH 1032 0
DWIDTH 14 0
BBX 14 26 0 -4
BITMAP
0000
0000
0000
0000
0000
0000
0000
0000
3300
3300
0CC0
0CC0
0330
0330
00CC
00CC
0330
0330
0CC0
0CC0
3300
3300
0000
0000
0000
0000
ENDCHAR
STARTCHAR fractone
ENCODING 188
SWIDTH 1032 0
DWIDTH 14 0
BBX 14 26 0 -4
BITMAP
0000
0000
0300
0300
0F00
0F00
0300
0300
0FC0
0FC0
0000
0000
3FF0
3FF0
0000
0000
0CC0
0CC0
0CC0
0CC0
03C0
03C0
00C0
00C0
0000
0000
ENDCHAR
STARTCHAR fractwo
ENCODING 189
SWIDTH 1032 0
DWIDTH 14 0
BBX 14 26 0 -4
BITMAP
0000
0000
0300
0300
0F00
0F00
0300
0300
0FC0
0FC0
0000
0000
3FF0
3FF0
0000
0000
0F00
0F00
30C0
30C0
0300
0300
0FC0
0FC0
0000
0000
ENDCHAR
STARTCHAR fracthree
ENCODING 190
SWIDTH 1032 0
DWIDTH 14 0
BBX 14 26 0 -4
BITMAP
0000
0000
0300
0300
0F00
0F00
0300
0300
0FC0
0FC0
0000
0000
3FF0
3FF0
0000
0000
0CC0
0CC0
0CC0
0CC0
03C0
03C0
00C0
00C0
0000
0000
ENDCHAR
STARTCHAR invquestion
ENCODING 191
SWIDTH 1032 0
DWIDTH 14 0
BBX 14 26 0 -4
BITMAP
0000
0000
0000
0000
0000
0000
0300
0300
0000
0000
0300
0300
0300
0300
00C0
00C0
3030
3030
3030
3030
0FC0
0FC0
0000
0000
0000
0000
ENDCHAR
STARTCHAR Agrave
ENCODING 192
SWIDTH 1032 0
DWIDTH 14 0
BBX 14 26 0 -4
BITMAP
0C00
0C00
0300
0300
0000
0000
0FC0
0FC0
3030
3030
3030
3030
3030
3030
3FF0
3FF0
3030
3030
3030
3030
3030
3030
0000
0000
0000
0000
ENDCHAR
STARTCHAR Acute
ENCODING 193
SWIDTH 1032 0
DWIDTH 14 0
BBX 14 26 0 -4
BITMAP
00C0
00C0
0300
0300
0000
0000
0FC0
0FC0
3030
3030
3030
3030
3030
3030
3FF0
3FF0
3030
3030
3030
3030
3030
3030
0000
0000
0000
0000
ENDCHAR
STARTCHAR Acircum
ENCODING 194
SWIDTH 1032 0
DWIDTH 14 0
BBX 14 26 0 -4
BITMAP
0300
0300
0CC0
0CC0
0000
0000
0FC0
0FC0
3030
3030
3030
3030
3030
3030
3FF0
3FF0
3030
3030
3030
3030
3030
3030
0000
0000
0000
0000
ENDCHAR
STARTCHAR Atilde
ENCODING 195
SWIDTH 1032 0
DWIDTH 14 0
BBX 14 26 0 -4
BITMAP
0330
0330
0CC0
0CC0
0000
0000
0FC0
0FC0
3030
3030
3030
3030
3030
3030
3FF0
3FF0
3030
3030
3030
3030
3030
3030
0000
0000
0000
0000
ENDCHAR
STARTCHAR Adiaeresis
ENCODING 196
SWIDTH 1032 0
DWIDTH 14 0
BBX 14 26 0 -4
BITMAP
0000
0000
0CC0
0CC0
0000
0000
0FC0
0FC0
3030
3030
3030
3030
3030
3030
3FF0
3FF0
3030
3030
3030
3030
3030
3030
0000
0000
0000
0000
ENDCHAR
STARTCHAR Aring
ENCODING 197
SWIDTH 1032 0
DWIDTH 14 0
BBX 14 26 0 -4
BITMAP
0300
0300
0CC0
0CC0
0300
0300
0FC0
0FC0
3030
3030
3030
3030
3030
3030
3FF0
3FF0
3030
3030
3030
3030
3030
3030
0000
0000
0000
0000
ENDCHAR
STARTCHAR AEligature
ENCODING 198
SWIDTH 1032 0
DWIDTH 14 0
BBX 14 26 0 -4
BITMAP
0000
0000
0000
0000
0000
0000
0FFC
0FFC
30C0
30C0
30C0
30C0
30C0
30C0
3FFC
3FFC
30C0
30C0
30C0
30C0
30FC
30FC
0000
0000
0000
0000
ENDCHAR
STARTCHAR Cedilla
ENCODING 199
SWIDTH 1032 0
DWIDTH 14 0
BBX 14 26 0 -4
BITMAP
0000
0000
0000
0000
0000
0000
0FC0
0FC0
3030
3030
3000
3000
3000
3000
3000
3000
3000
3000
3030
3030
0FC0
0FC0
0300
0300
0F00
0F00
ENDCHAR
STARTCHAR Egrave
ENCODING 200
SWIDTH 1032 0
DWIDTH 14 0
BBX 14 26 0 -4
BITMAP
0C00
0C00
0300
0300
0000
0000
3FF0
3FF0
3000
3000
3000
3000
3FC0
3FC0
3000
3000
3000
3000
3000
3000
3FF0
3FF0
0000
0000
0000
0000
ENDCHAR
STARTCHAR Eacute
ENCODING 201
SWIDTH 1032 0
DWIDTH 14 0
BBX 14 26 0 -4
BITMAP
00C0
00C0
0300
0300
0000
0000
3FF0
3FF0
3000
3000
3000
3000
3FC0
3FC0
3000
3000
3000
3000
3000
3000
3FF0
3FF0
0000
0000
0000
0000
ENDCHAR
STARTCHAR Ecircum
ENCODING 202
SWIDTH 1032 0
DWIDTH 14 0
BBX 14 26 0 -4
BITMAP
0300
0300
0CC0
0CC0
0000
0000
3FF0
3FF0
3000
3000
3000
3000
3FC0
3FC0
3000
3000
3000
3000
3000
3000
3FF0
3FF0
0000
0000
0000
0000
ENDCHAR
STARTCHAR Ediaeresis
ENCODING 203
SWIDTH 1032 0
DWIDTH 14 0
BBX 14 26 0 -4
BITMAP
0000
0000
0CC0
0CC0
0000
0000
3FF0
3FF0
3000
3000
3000
3000
3FC0
3FC0
3000
3000
3000
3000
3000
3000
3FF0
3FF0
0000
0000
0000
0000
ENDCHAR
STARTCHAR Igrave
ENCODING 204
SWIDTH 1032 0
DWIDTH 14 0
BBX 14 26 0 -4
BITMAP
0C00
0C00
0300
0300
0000
0000
3FF0
3FF0
0300
0300
0300
0300
0300
0300
0300
0300
0300
0300
0300
0300
3FF0
3FF0
0000
0000
0000
0000
ENDCHAR
STARTCHAR Iacute
ENCODING 205
SWIDTH 1032 0
DWIDTH 14 0
BBX 14 26 0 -4
BITMAP
00C0
00C0
0300
0300
0000
0000
3FF0
3FF0
0300
0300
0300
0300
0300
0300
0300
0300
0300
0300
0300
0300
3FF0
3FF0
0000
0000
0000
0000
ENDCHAR
STARTCHAR Icircum
ENCODING 206
SWIDTH 1032 0
DWIDTH 14 0
BBX 14 26 0 -4
BITMAP
0300
0300
0CC0
0CC0
0000
0000
3FF0
3FF0
0300
0300
0300
0300
0300
0300
0300
0300
0300
0300
0300
0300
3FF0
3FF0
0000
0000
0000
0000
ENDCHAR
STARTCHAR Idiaeresis
ENCODING 207
SWIDTH 1032 0
DWIDTH 14 0
BBX 14 26 0 -4
BITMAP
0000
0000
0CC0
0CC0
0000
0000
3FF0
3FF0
0300
0300
0300
0300
0300
0300
0300
0300
0300
0300
0300
0300
3FF0
3FF0
0000
0000
0000
0000
ENDCHAR
STARTCHAR ETH
ENCODING 208
SWIDTH 1032 0
DWIDTH 14 0
BBX 14 26 0 -4
BITMAP
0000
0000
0000
0000
0000
0000
3FC0
3FC0
3030
3030
3030
3030
3030
3030
FF30
FF30
3030
3030
3030
3030
3FC0
3FC0
0000
0000
0000
0000
ENDCHAR
STARTCHAR Ntilde
ENCODING 209
SWIDTH 1032 0
DWIDTH 14 0
BBX 14 26 0 -4
BITMAP
0330
0330
0CC0
0CC0
0000
0000
3030
3030
3C30
3C30
3330
3330
30F0
30F0
3030
3030
3030
3030
3030
3030
3030
3030
0000
0000
0000
0000
ENDCHAR
STARTCHAR Ograve
ENCODING 210
SWIDTH 1032 0
DWIDTH 14 0
BBX 14 26 0 -4
BITMAP
0C00
0C00
0300
0300
0000
0000
0FC0
0FC0
3030
3030
3030
3030
3030
3030
3030
3030
3030
3030
3030
3030
0FC0
0FC0
0000
0000
0000
0000
ENDCHAR
STARTCHAR Oacute
ENCODING 211
SWIDTH 1032 0
DWIDTH 14 0
BBX 14 26 0 -4
BITMAP
00C0
00C0
0300
0300
0000
0000
0FC0
0FC0
3030
3030
3030
3030
3030
3030
3030
3030
3030
3030
3030
3030
0FC0
0FC0
0000
0000
0000
0000
ENDCHAR
STARTCHAR Ocircum
ENCODING 212
SWIDTH 1032 0
DWIDTH 14 0
BBX 14 26 0 -4
BITMAP
0300
0300
0CC0
0CC0
0000
0000
0FC0
0FC0
3030
3030
3030
3030
3030
3030
3030
3030
3030
3030
3030
3030
0FC0
0FC0
0000
0000
0000
0000
ENDCHAR
STARTCHAR Otilde
ENCODING 213
SWIDTH 1032 0
DWIDTH 14 0
BBX 14 26 0 -4
BITMAP
0330
0330
0CC0
0CC0
0000
0000
0FC0
0FC0
3030
3030
3030
3030
3030
3030
3030
3030
3030
3030
3030
3030
0FC0
0FC0
0000
0000
0000
0000
ENDCHAR
STARTCHAR Odiaeresis
ENCODING 214
SWIDTH 1032 0
DWIDTH 14 0
BBX 14 26 0 -4
BITMAP
0000
0000
0CC0
0CC0
0000
0000
0FC0
0FC0
3030
3030
3030
3030
3030
3030
3030
3030
3030
3030
3030
3030
0FC0
0FC0
0000
0000
0000
0000
ENDCHAR
STARTCHAR multipli
ENCODING 215
SWIDTH 1032 0
DWIDTH 14 0
BBX 14 26 0 -4
BITMAP
0000
0000
0000
0000
0000
0000
0000
0000
0000
0000
3030
3030
0CC0
0CC0
0300
0300
0CC0
0CC0
3030
3030
0000
0000
0000
0000
0000
0000
ENDCHAR
STARTCHAR Oslash
ENCODING 216
SWIDTH 1032 0
DWIDTH 14 0
BBX 14 26 0 -4
BITMAP
0000
0000
0000
0000
0000
0000
0FC0
0FC0
303C
303C
30F0
30F0
3330
3330
3C30
3C30
3030
3030
F030
F030
0FC0
0FC0
0000
0000
0000
0000
ENDCHAR
STARTCHAR Ugrave
ENCODING 217
SWIDTH 1032 0
DWIDTH 14 0
BBX 14 26 0 -4
BITMAP
0C00
0C00
0300
0300
0000
0000
3030
3030
3030
3030
3030
3030
3030
3030
3030
3030
3030
3030
3030
3030
0FC0
0FC0
0000
0000
0000
0000
ENDCHAR
STARTCHAR Uacute
ENCODING 218
SWIDTH 1032 0
DWIDTH 14 0
BBX 14 26 0 -4
BITMAP
00C0
00C0
0300
0300
0000
0000
3030
3030
3030
3030
3030
3030
3030
3030
3030
3030
3030
3030
3030
3030
0FC0
0FC0
0000
0000
0000
0000
ENDCHAR
STARTCHAR Ucircum
ENCODING 219
SWIDTH 1032 0
DWIDTH 14 0
BBX 14 26 0 -4
BITMAP
0300
0300
0CC0
0CC0
0000
0000
3030
3030
3030
3030
3030
3030
3030
3030
3030
3030
3030
3030
3030
3030
0FC0
0FC0
0000
0000
0000
0000
ENDCHAR
STARTCHAR Udiaeresis
ENCODING 220
SWIDTH 1032 0
DWIDTH 14 0
BBX 14 26 0 -4
BITMAP
0000
0000
0CC0
0CC0
0000
0000
3030
3030
3030
3030
3030
3030
3030
3030
3030
3030
3030
3030
3030
3030
0FC0
0FC0
0000
0000
0000
0000
ENDCHAR
STARTCHAR Yacute
ENCODING 221
SWIDTH 1032 0
DWIDTH 14 0
BBX 14 26 0 -4
BITMAP
00C0
00C0
0300
0300
0000
0000
3030
3030
3030
3030
3030
3030
0CC0
0CC0
0300
0300
0300
0300
0300
0300
0300
0300
0000
0000
0000
0000
ENDCHAR
STARTCHAR THORN
ENCODING 222
SWIDTH 1032 0
DWIDTH 14 0
BBX 14 26 0 -4
BITMAP
0000
0000
0000
0000
0000
0000
3C00
3C00
0CF0
0CF0
0F0C
0F0C
0C0C
0C0C
0C0C
0C0C
0F0C
0F0C
0CF0
0CF0
3C00
3C00
0000
0000
0000
0000
ENDCHAR
STARTCHAR smallsharp
ENCODING 223
SWIDTH 1032 0
DWIDTH 14 0
BBX 14 26 0 -4
BITMAP
0000
0000
0000
0000
0000
0000
0FC0
0FC0
3030
3030
3030
3030
33C0
33C0
3030
3030
3030
3030
3330
3330
30C0
30C0
0000
0000
0000
0000
ENDCHAR
STARTCHAR agrave
ENCODING 224
SWIDTH 1032 0
DWIDTH 14 0
BBX 14 26 0 -4
BITMAP
0000
0000
0000
0000
0C00
0C00
0300
0300
0000
0000
0FF0
0FF0
3030
3030
3030
3030
3030
3030
3030
3030
0FF0
0FF0
0000
0000
0000
0000
ENDCHAR
STARTCHAR acute
ENCODING 225
SWIDTH 1032 0
DWIDTH 14 0
BBX 14 26 0 -4
BITMAP
0000
0000
0000
0000
00C0
00C0
0300
0300
0000
0000
0FF0
0FF0
3030
3030
3030
3030
3030
3030
3030
3030
0FF0
0FF0
0000
0000
0000
0000
ENDCHAR
STARTCHAR acircum
ENCODING 226
SWIDTH 1032 0
DWIDTH 14 0
BBX 14 26 0 -4
BITMAP
0000
0000
0000
0000
0300
0300
0CC0
0CC0
0000
0000
0FF0
0FF0
3030
3030
3030
3030
3030
3030
3030
3030
0FF0
0FF0
0000
0000
0000
0000
ENDCHAR
STARTCHAR atilde
ENCODING 227
SWIDTH 1032 0
DWIDTH 14 0
BBX 14 26 0 -4
BITMAP
0000
0000
0000
0000
0330
0330
0CC0
0CC0
0000
0000
0FF0
0FF0
3030
3030
3030
3030
3030
3030
3030
3030
0FF0
0FF0
0000
0000
0000
0000
ENDCHAR
STARTCHAR adiaeresis
ENCODING 228
SWIDTH 1032 0
DWIDTH 14 0
BBX 14 26 0 -4
BITMAP
0000
0000
0000
0000
0000
0000
0CC0
0CC0
0000
0000
0FF0
0FF0
3030
3030
3030
3030
3030
3030
3030
3030
0FF0
0FF0
0000
0000
0000
0000
ENDCHAR
STARTCHAR aring
ENCODING 229
SWIDTH 1032 0
DWIDTH 14 0
BBX 14 26 0 -4
BITMAP
0000
0000
0000
0000
0300
0300
0CC0
0CC0
0300
0300
0FF0
0FF0
3030
3030
3030
3030
3030
3030
3030
3030
0FF0
0FF0
0000
0000
0000
0000
ENDCHAR
STARTCHAR aeligature
ENCODING 230
SWIDTH 1032 0
DWIDTH 14 0
BBX 14 26 0 -4
BITMAP
0000
0000
0000
0000
0000
0000
0000
0000
0000
0000
0FFC
0FFC
00C0
00C0
3FFC
3FFC
30C0
30C0
30C0
30C0
0FFC
0FFC
0000
0000
0000
0000
ENDCHAR
STARTCHAR ccedilla
ENCODING 231
SWIDTH 1032 0
DWIDTH 14 0
BBX 14 26 0 -4
BITMAP
0000
0000
0000
0000
0000
0000
0000
0000
0000
0000
0FC0
0FC0
3030
3030
3000
3000
3000
3000
3030
3030
0FC0
0FC0
0300
0300
0F00
0F00
ENDCHAR
STARTCHAR egrave
ENCODING 232
SWIDTH 1032 0
DWIDTH 14 0
BBX 14 26 0 -4
BITMAP
0000
0000
0000
0000
0C00
0C00
0300
0300
0000
0000
0FC0
0FC0
3030
3030
3030
3030
3FC0
3FC0
3000
3000
0FF0
0FF0
0000
0000
0000
0000
ENDCHAR
STARTCHAR eacute
ENCODING 233
SWIDTH 1032 0
DWIDTH 14 0
BBX 14 26 0 -4
BITMAP
0000
0000
0000
0000
00C0
00C0
0300
0300
0000
0000
0FC0
0FC0
3030
3030
3030
3030
3FC0
3FC0
3000
3000
0FF0
0FF0
0000
0000
0000
0000
ENDCHAR
STARTCHAR ecircum
ENCODING 234
SWIDTH 1032 0
DWIDTH 14 0
BBX 14 26 0 -4
BITMAP
0000
0000
0000
0000
0300
0300
0CC0
0CC0
0000
0000
0FC0
0FC0
3030
3030
3030
3030
3FC0
3FC0
3000
3000
0FF0
0FF0
0000
0000
0000
0000
ENDCHAR
STARTCHAR ediaeresis
ENCODING 235
SWIDTH 1032 0
DWIDTH 14 0
BBX 14 26 0 -4
BITMAP
0000
0000
0000
0000
0000
0000
0CC0
0CC0
0000
0000
0FC0
0FC0
3030
3030
3030
3030
3FC0
3FC0
3000
3000
0FF0
0FF0
0000
0000
0000
0000
ENDCHAR
STARTCHAR igrave
ENCODING 236
SWIDTH 1032 0
DWIDTH 14 0
BBX 14 26 0 -4
BITMAP
0000
0000
0000
0000
0C00
0C00
0300
0300
0000
0000
3F00
3F00
0300
0300
0300
0300
0300
0300
0300
0300
03F0
03F0
0000
0000
0000
0000
ENDCHAR
STARTCHAR iacute
ENCODING 237
SWIDTH 1032 0
DWIDTH 14 0
BBX 14 26 0 -4
BITMAP
0000
0000
0000
0000
00C0
00C0
0300
0300
0000
0000
3F00
3F00
0300
0300
0300
0300
0300
0300
0300
0300
03F0
03F0
0000
0000
0000
0000
ENDCHAR
STARTCHAR icircum
ENCODING 238
SWIDTH 1032 0
DWIDTH 14 0
BBX 14 26 0 -4
BITMAP
0000
0000
0000
0000
0300
0300
0CC0
0CC0
0000
0000
3F00
3F00
0300
0300
0300
0300
0300
0300
0300
0300
03F0
03F0
0000
0000
0000
0000
ENDCHAR
STARTCHAR idiaeresis
ENCODING 239
SWIDTH 1032 0
DWIDTH 14 0
BBX 14 26 0 -4
BITMAP
0000
0000
0000
0000
0000
0000
0CC0
0CC0
0000
0000
3F00
3F00
0300
0300
0300
0300
0300
0300
0300
0300
03F0
03F0
0000
0000
0000
0000
ENDCHAR
STARTCHAR eth
ENCODING 240
SWIDTH 1032 0
DWIDTH 14 0
BBX 14 26 0 -4
BITMAP
0000
0000
0300
0300
00C0
00C0
0F00
0F00
0000
0000
0FC0
0FC0
3030
3030
3030
3030
3030
3030
3030
3030
0FC0
0FC0
0000
0000
0000
0000
ENDCHAR
STARTCHAR ntilde
ENCODING 241
SWIDTH 1032 0
DWIDTH 14 0
BBX 14 26 0 -4
BITMAP
0000
0000
0000
0000
0330
0330
0CC0
0CC0
0000
0000
3FC0
3FC0
3030
3030
3030
3030
3030
3030
3030
3030
3030
3030
0000
0000
0000
0000
ENDCHAR
STARTCHAR ograve
ENCODING 242
SWIDTH 1032 0
DWIDTH 14 0
BBX 14 26 0 -4
BITMAP
0000
0000
0000
0000
0C00
0C00
0300
0300
0000
0000
0FC0
0FC0
3030
3030
3030
3030
3030
3030
3030
3030
0FC0
0FC0
0000
0000
0000
0000
ENDCHAR
STARTCHAR oacute
ENCODING 243
SWIDTH 1032 0
DWIDTH 14 0
BBX 14 26 0 -4
BITMAP
0000
0000
0000
0000
00C0
00C0
0300
0300
0000
0000
0FC0
0FC0
3030
3030
3030
3030
3030
3030
3030
3030
0FC0
0FC0
0000
0000
0000
0000
ENDCHAR
STARTCHAR ocircum
ENCODING 244
SWIDTH 1032 0
DWIDTH 14 0
BBX 14 26 0 -4
BITMAP
0000
0000
0000
0000
0300
0300
0CC0
0CC0
0000
0000
0FC0
0FC0
3030
3030
3030
3030
3030
3030
3030
3030
0FC0
0FC0
0000
0000
0000
0000
ENDCHAR
STARTCHAR otilde
ENCODING 245
SWIDTH 1032 0
DWIDTH 14 0
BBX 14 26 0 -4
BITMAP
0000
0000
0000
0000
0330
0330
0CC0
0CC0
0000
0000
0FC0
0FC0
3030
3030
3030
3030
3030
3030
3030
3030
0FC0
0FC0
0000
0000
0000
0000
ENDCHAR
STARTCHAR odiaeresis
ENCODING 246
SWIDTH 1032 0
DWIDTH 14 0
BBX 14 26 0 -4
BITMAP
0000
0000
0000
0000
0000
0000
0CC0
0CC0
0000
0000
0FC0
0FC0
3030
3030
3030
3030
3030
3030
3030
3030
0FC0
0FC0
0000
0000
0000
0000
ENDCHAR
STARTCHAR division
ENCODING 247
SWIDTH 1032 0
DWIDTH 14 0
BBX 14 26 0 -4
BITMAP
0000
0000
0000
0000
0000
0000
0000
0000
0300
0300
0300
0300
0000
0000
3FF0
3FF0
0000
0000
0300
0300
0300
0300
0000
0000
0000
0000
ENDCHAR
STARTCHAR oslash
ENCODING 248
SWIDTH 1032 0
DWIDTH 14 0
BBX 14 26 0 -4
BITMAP
0000
0000
0000
0000
0000
0000
0000
0000
0000
0000
0FCC
0FCC
30F0
30F0
3330
3330
3C30
3C30
3030
3030
CFC0
CFC0
0000
0000
0000
0000
ENDCHAR
STARTCHAR ugrave
ENCODING 249
SWIDTH 1032 0
DWIDTH 14 0
BBX 14 26 0 -4
BITMAP
0000
0000
0000
0000
0C00
0C00
0300
0300
0000
0000
3030
3030
3030
3030
3030
3030
3030
3030
3030
3030
0FF0
0FF0
0000
0000
0000
0000
ENDCHAR
STARTCHAR uacute
ENCODING 250
SWIDTH 1032 0
DWIDTH 14 0
BBX 14 26 0 -4
BITMAP
0000
0000
0000
0000
00C0
00C0
0300
0300
0000
0000
3030
3030
3030
3030
3030
3030
3030
3030
3030
3030
0FF0
0FF0
0000
0000
0000
0000
ENDCHAR
STARTCHAR ucircum
ENCODING 251
SWIDTH 1032 0
DWIDTH 14 0
BBX 14 26 0 -4
BITMAP
0000
0000
0000
0000
0300
0300
0CC0
0CC0
0000
0000
3030
3030
3030
3030
3030
3030
3030
3030
3030
3030
0FF0
0FF0
0000
0000
0000
0000
ENDCHAR
STARTCHAR udiaeresis
ENCODING 252
SWIDTH 1032 0
DWIDTH 14 0
BBX 14 26 0 -4
BITMAP
0000
0000
0000
0000
0000
0000
0CC0
0CC0
0000
0000
3030
3030
3030
3030
3030
3030
3030
3030
3030
3030
0FF0
0FF0
0000
0000
0000
0000
ENDCHAR
STARTCHAR yacute
ENCODING 253
SWIDTH 1032 0
DWIDTH 14 0
BBX 14 26 0 -4
BITMAP
0000
0000
0000
0000
00C0
00C0
0300
0300
0000
0000
3030
3030
3030
3030
3030
3030
3030
3030
3030
3030
0FF0
0FF0
0030
0030
3FC0
3FC0
ENDCHAR
STARTCHAR thorn
ENCODING 254
SWIDTH 1032 0
DWIDTH 14 0
BBX 14 26 0 -4
BITMAP
0000
0000
0000
0000
3C00
3C00
0C00
0C00
0CF0
0CF0
0F0C
0F0C
0C0C
0C0C
0C0C
0C0C
0F0C
0F0C
0CF0
0CF0
0C00
0C00
3C00
3C00
0000
0000
ENDCHAR
STARTCHAR ydiaeresis
ENCODING 255
SWIDTH 1032 0
DWIDTH 14 0
BBX 14 26 0 -4
BITMAP
0000
0000
0000
0000
0000
0000
0CC0
0CC0
0000
0000
3030
3030
3030
3030
3030
3030
3030
3030
3030
3030
0FF0
0FF0
0030
0030
3FC0
3FC0
ENDCHAR
STARTCHAR char9679
ENCODING 9679
SWIDTH 1032 0
DWIDTH 14 0
BBX 14 26 0 -4
BITMAP
0000
0000
0000
0000
0000
0000
0FC0
0FC0
3FF0
3FF0
FFFC
FFFC
FFFC
FFFC
FFFC
FFFC
3FF0
3FF0
0FC0
0FC0
0000
0000
0000
0000
0000
0000
ENDCHAR
STARTCHAR char10008
ENCODING 10008
SWIDTH 1032 0
DWIDTH 14 0
BBX 14 26 0 -4
BITMAP
0000
0000
0000
0000
0000
0000
F03C
F03C
FCFC
FCFC
3FF0
3FF0
0FC0
0FC0
3FF0
3FF0
FCFC
FCFC
F03C
F03C
0000
0000
0000
0000
0000
0000
ENDCHAR
STARTCHAR char10010
ENCODING 10010
SWIDTH 1032 0
DWIDTH 14 0
BBX 14 26 0 -4
BITMAP
0000
0000
0000
0000
0000
0000
0FC0
0FC0
0FC0
0FC0
FFFC
FFFC
FFFC
FFFC
FFFC
FFFC
0FC0
0FC0
0FC0
0FC0
0000
0000
0000
0000
0000
0000
ENDCHAR
STARTCHAR versioncontrolbranch
ENCODING 57504
SWIDTH 1032 0
DWIDTH 14 0
BBX 14 26 0 -4
BITMAP
0000
0000
F000
F000
F0F0
F0F0
F3FC
F3FC
F0F0
F0F0
F0F0
F0F0
C3F0
C3F0
0FC0
0FC0
3F00
3F00
FC00
FC00
F000
F000
F000
F000
0000
0000
ENDCHAR
STARTCHAR lnsymbol
ENCODING 57505
SWIDTH 1032 0
DWIDTH 14 0
BBX 14 26 0 -4
BITMAP
0000
0000
3000
3000
3000
3000
3000
3000
3000
3000
3FF0
3FF0
0000
0000
0C0C
0C0C
0F0C
0F0C
0CCC
0CCC
0C3C
0C3C
0C0C
0C0C
0000
0000
ENDCHAR
STARTCHAR closedpadlock
ENCODING 57506
SWIDTH 1032 0
DWIDTH 14 0
BBX 14 26 0 -4
BITMAP
0000
0000
0000
0000
3FF0
3FF0
3030
3030
3030
3030
FFFC
FFFC
FCFC
FCFC
F03C
F03C
FCFC
FCFC
FCFC
FCFC
FFFC
FFFC
0000
0000
0000
0000
ENDCHAR
STARTCHAR rightwardsblackarrowhead
ENCODING 57520
SWIDTH 1032 0
DWIDTH 14 0
BBX 14 26 0 -4
BITMAP
C000
C000
F000
F000
FC00
FC00
FF00
FF00
FFC0
FFC0
FFF0
FFF0
FFFC
FFFC
FFF0
FFF0
FFC0
FFC0
FF00
FF00
FC00
FC00
F000
F000
C000
C000
ENDCHAR
STARTCHAR rightwardsarrowhead
ENCODING 57521
SWIDTH 1032 0
DWIDTH 14 0
BBX 14 26 0 -4
BITMAP
C000
C000
F000
F000
3C00
3C00
0F00
0F00
03C0
03C0
00F0
00F0
003C
003C
00F0
00F0
03C0
03C0
0F00
0F00
3C00
3C00
F000
F000
C000
C000
ENDCHAR
STARTCHAR leftwardsblackarrowhead
ENCODING 57522
SWIDTH 1032 0
DWIDTH 14 0
BBX 14 26 0 -4
BITMAP
000C
000C
003C
003C
00FC
00FC
03FC
03FC
0FFC
0FFC
3FFC
3FFC
FFFC
FFFC
3FFC
3FFC
0FFC
0FFC
03FC
03FC
00FC
00FC
003C
003C
000C
000C
ENDCHAR
STARTCHAR leftwardsarrowhead
ENCODING 57523
SWIDTH 1032 0
DWIDTH 14 0
BBX 14 26 0 -4
BITMAP
000C
000C
003C
003C
00F0
00F0
03C0
03C0
0F00
0F00
3C00
3C00
F000
F000
3C00
3C00
0F00
0F00
03C0
03C0
00F0
00F0
003C
003C
000C
000C
ENDCHAR
ENDFONT
